<?xml version="1.0" standalone="no"?>
<!DOCTYPE svg PUBLIC "-//W3C//DTD SVG 20010904//EN"
 "http://www.w3.org/TR/2001/REC-SVG-20010904/DTD/svg10.dtd">
<svg version="1.0" xmlns="http://www.w3.org/2000/svg"
 width="40pt" height="40pt" viewBox="0 0 941.000000 1071.000000"
 preserveAspectRatio="xMidYMid meet">

<g transform="translate(0.000000,1071.000000) scale(0.100000,-0.100000)"
fill="#000000" stroke="none">
<path d="M4490 10683 c-113 -4 -379 -32 -520 -53 -485 -75 -917 -210 -1315
-413 -972 -496 -1533 -1306 -1661 -2402 -48 -414 -18 -961 82 -1462 31 -154
57 -219 220 -545 257 -513 382 -849 459 -1238 26 -134 30 -128 44 75 6 77 16
219 23 315 8 105 13 348 12 605 0 357 -4 471 -22 671 -12 133 -22 251 -22 261
0 15 27 29 142 72 251 92 557 251 773 399 189 130 325 243 519 431 l108 106
-7 -50 c-10 -70 -56 -190 -104 -274 -104 -178 -268 -340 -551 -544 l-25 -18
25 5 c75 17 359 94 518 142 566 169 1056 377 1467 624 220 133 317 200 508
353 53 43 97 75 97 71 0 -16 -102 -175 -172 -269 -246 -328 -609 -617 -1083
-863 -99 -51 -171 -91 -160 -88 164 41 549 157 800 241 954 317 1743 720 2392
1222 63 48 118 89 122 91 15 5 23 -151 12 -228 -24 -171 -89 -299 -303 -593
-190 -260 -274 -420 -323 -616 -24 -93 -16 -103 27 -35 85 137 213 224 430
293 258 82 357 124 444 187 l22 15 6 -113 c15 -241 47 -516 106 -888 110 -691
123 -818 124 -1190 0 -157 -2 -314 -6 -350 -6 -51 -1 -38 21 60 122 540 221
911 436 1635 127 427 204 725 234 910 74 443 45 952 -74 1280 -73 204 -169
359 -313 507 l-94 97 104 50 c56 28 153 67 213 87 143 47 156 56 75 48 -126
-11 -246 -36 -355 -72 l-110 -37 0 180 c0 136 -4 201 -18 265 -20 94 -71 251
-94 290 -14 25 -14 25 -8 -10 27 -164 40 -380 26 -444 -6 -29 -8 -27 -53 50
-299 509 -1062 922 -2003 1084 -394 67 -763 90 -1195 73z"/>
<path d="M2695 6391 c-60 -8 -84 -21 -118 -61 -40 -47 -47 -83 -56 -287 -7
-170 -10 -195 -30 -226 -21 -34 -73 -67 -105 -67 -13 0 -16 -12 -16 -59 0 -59
0 -59 32 -67 94 -20 109 -58 119 -296 9 -197 18 -239 62 -287 32 -35 79 -51
147 -51 l60 0 0 55 c0 50 -2 55 -22 55 -51 0 -96 20 -106 48 -6 15 -13 99 -15
187 -6 188 -20 245 -73 298 -20 20 -45 39 -55 42 -20 7 -26 25 -9 25 6 0 31
19 55 41 62 58 75 104 82 313 7 198 14 214 96 223 l47 6 0 58 c0 66 6 63 -95
50z"/>
<path d="M3980 6340 c0 -59 0 -60 29 -60 47 0 87 -19 101 -48 7 -16 15 -101
19 -202 6 -131 12 -186 26 -217 16 -39 57 -84 102 -113 15 -9 16 -12 3 -17 -8
-3 -34 -24 -56 -47 -55 -54 -74 -118 -74 -250 0 -143 -10 -229 -29 -255 -12
-15 -32 -23 -69 -28 l-52 -6 0 -53 0 -54 60 0 c71 0 114 16 152 56 42 46 49
77 58 280 5 115 13 201 20 215 22 43 63 79 97 85 33 6 33 6 33 64 0 58 0 59
-32 66 -94 20 -110 58 -119 296 -6 174 -8 192 -33 241 -32 66 -75 92 -168 101
l-68 7 0 -61z"/>
<path d="M5374 6390 c-62 -9 -84 -21 -118 -60 -37 -45 -46 -90 -55 -293 -8
-196 -17 -229 -66 -261 -14 -9 -39 -19 -55 -23 -29 -5 -30 -7 -30 -62 l0 -57
45 -12 c35 -9 51 -21 71 -52 25 -38 27 -48 34 -224 5 -101 14 -202 20 -224 23
-86 89 -132 189 -132 l61 0 0 54 0 53 -49 7 c-82 11 -87 24 -94 223 -3 113
-10 185 -21 219 -16 52 -70 117 -106 129 -21 7 -28 25 -10 25 6 0 31 19 55 41
63 58 75 105 82 313 5 153 8 171 27 193 15 18 35 27 69 30 l47 6 0 58 c0 66 5
64 -96 49z"/>
<path d="M6660 6340 c0 -59 0 -60 29 -60 48 0 92 -21 103 -49 6 -14 14 -105
18 -201 5 -132 11 -185 24 -217 17 -39 58 -84 103 -113 15 -9 16 -12 3 -17 -8
-3 -34 -24 -56 -47 -59 -58 -74 -116 -74 -285 0 -143 -9 -205 -32 -228 -8 -7
-38 -16 -66 -20 l-52 -6 0 -53 0 -54 60 0 c71 0 114 16 152 56 43 46 49 78 58
274 8 200 17 241 64 278 15 11 40 24 56 27 29 6 30 8 30 65 0 58 0 58 -32 65
-38 8 -85 48 -100 85 -6 14 -14 111 -18 216 -7 185 -8 193 -36 243 -34 64 -73
86 -166 95 l-68 7 0 -61z"/>
<path d="M4670 5675 l0 -435 50 0 50 0 0 435 0 435 -50 0 -50 0 0 -435z"/>
<path d="M3310 5951 c-73 -22 -148 -90 -176 -158 -20 -46 -19 -158 1 -206 58
-138 227 -206 360 -143 106 49 176 168 160 274 -7 47 -39 132 -50 132 -3 0
-17 -7 -30 -16 -32 -21 -64 -15 -88 18 -18 24 -18 28 -4 56 15 30 14 31 -16
41 -34 12 -119 13 -157 2z"/>
<path d="M5990 5951 c-71 -22 -131 -74 -169 -146 -29 -54 -29 -162 0 -225 44
-99 138 -160 245 -160 198 0 333 216 243 391 -22 45 -22 44 -54 23 -32 -21
-64 -15 -88 18 -18 24 -18 28 -4 56 15 30 14 31 -16 41 -34 12 -119 13 -157 2z"/>
<path d="M105 3463 c-38 -10 -74 -44 -90 -86 -14 -37 -15 -111 -13 -653 l3
-610 25 -37 c30 -44 62 -59 145 -66 l62 -6 68 -77 68 -78 115 0 114 0 -66 74
c-36 41 -66 76 -66 79 0 2 24 7 52 10 56 7 89 26 122 71 21 27 21 37 21 654
l0 627 -23 36 c-38 62 -71 69 -310 68 -114 -1 -216 -4 -227 -6z m355 -723 l0
-520 -125 0 -125 0 0 505 0 505 -32 14 c-30 13 -21 14 125 15 l157 1 0 -520z"/>
<path d="M1354 3455 c10 -8 22 -16 26 -17 7 -3 -7 -89 -95 -603 -88 -515 -135
-794 -135 -809 0 -15 13 -16 102 -14 l102 3 12 75 c17 102 17 98 -13 114 -26
14 -15 15 135 16 89 0 162 -1 163 -2 0 -2 8 -48 17 -103 l17 -100 103 -3 c73
-2 102 1 102 9 0 11 -54 331 -141 834 -16 94 -43 251 -60 350 -17 99 -34 198
-38 220 l-7 40 -154 2 c-137 2 -153 1 -136 -12z m214 -697 c24 -156 46 -293
49 -305 5 -23 4 -23 -96 -23 -57 0 -101 4 -101 10 0 5 20 137 45 293 25 157
45 290 45 296 0 6 3 11 8 11 4 0 27 -127 50 -282z"/>
<path d="M3150 3465 c0 -3 11 -10 25 -15 l25 -9 2 -713 3 -713 103 -3 102 -3
0 299 0 298 -32 17 c-32 15 -26 16 145 16 l177 1 0 105 0 105 -145 0 -145 0 0
190 0 191 -32 14 c-30 13 -12 14 187 17 l220 3 0 100 0 100 -317 3 c-175 1
-318 0 -318 -3z"/>
<path d="M4250 3456 l25 -14 5 -714 5 -713 290 0 290 0 3 103 3 102 -191 0
-190 0 0 193 0 193 -32 17 c-32 15 -26 16 145 16 l177 1 0 105 0 105 -145 0
-145 0 0 190 0 190 -27 13 c-23 10 7 13 187 17 l215 5 0 100 0 100 -320 2
c-278 2 -317 1 -295 -11z"/>
<path d="M5330 3455 l25 -13 5 -714 5 -713 290 0 290 0 3 103 3 102 -191 0
-190 0 0 625 0 625 -132 0 c-119 -1 -130 -2 -108 -15z"/>
<path d="M6418 3453 l32 -17 0 -713 0 -713 290 0 290 0 0 105 0 105 -190 0
-190 0 0 625 0 625 -132 -1 c-129 0 -132 -1 -100 -16z"/>
<path d="M7714 3455 c10 -8 23 -16 27 -17 8 -3 -14 -143 -116 -733 -89 -515
-107 -623 -112 -658 l-6 -38 104 3 103 3 7 34 c4 19 10 58 14 87 6 50 5 53
-22 68 -26 14 -16 15 137 13 l165 -2 15 -100 16 -100 102 -3 c92 -2 102 -1
102 15 0 10 -11 83 -25 163 -14 80 -50 291 -81 470 -30 179 -71 415 -90 525
-19 110 -37 219 -41 243 l-6 42 -156 0 c-138 -1 -154 -2 -137 -15z m176 -426
c0 -6 20 -139 45 -296 25 -156 45 -288 45 -293 0 -6 -44 -10 -101 -10 -100 0
-101 0 -96 23 3 12 25 149 49 304 23 156 46 283 51 283 4 0 7 -5 7 -11z"/>
<path d="M8815 3452 c-72 -34 -80 -60 -83 -272 l-3 -185 231 -282 230 -282 0
-106 0 -105 -125 0 -125 0 0 105 0 106 -102 -3 -103 -3 0 -157 c0 -171 4 -184
69 -232 25 -19 44 -21 247 -24 207 -3 222 -2 264 18 32 16 49 32 64 64 19 38
21 61 21 220 l0 177 -147 181 c-82 99 -185 226 -230 282 l-83 101 0 87 0 88
-32 14 c-30 13 -21 14 125 15 l157 1 0 -105 0 -105 105 0 105 0 0 145 c0 165
-12 211 -64 248 -30 21 -41 22 -256 25 -203 2 -229 0 -265 -16z"/>
<path d="M5503 1383 c-10 -3 -13 -50 -13 -187 l0 -182 -54 -23 c-67 -27 -140
-90 -167 -142 -25 -51 -44 -181 -35 -252 10 -75 52 -157 94 -180 41 -24 184
-36 207 -17 13 11 15 75 15 495 0 431 -2 484 -16 489 -9 3 -16 6 -17 5 -1 0
-8 -3 -14 -6z m-19 -469 c10 -26 7 -401 -4 -428 -8 -22 -16 -26 -51 -26 -52 0
-102 46 -119 111 -18 64 -8 195 17 244 43 82 140 144 157 99z"/>
<path d="M1463 1303 c-10 -4 -13 -104 -13 -453 0 -443 0 -449 20 -455 47 -15
50 0 50 271 l0 253 39 12 c29 9 47 9 75 -1 62 -20 66 -38 66 -299 0 -215 1
-230 19 -236 10 -3 26 -3 35 1 15 6 17 30 14 260 -3 287 -4 288 -89 332 -36
19 -55 23 -101 19 l-58 -5 0 144 c0 131 -2 144 -19 154 -11 5 -21 10 -23 9 -2
0 -9 -3 -15 -6z"/>
<path d="M995 1260 c-11 -4 -33 -22 -50 -40 -28 -29 -30 -37 -30 -103 l0 -73
71 -99 c40 -55 81 -116 93 -136 66 -113 69 -318 6 -343 -35 -13 -95 -6 -115
14 -11 11 -20 25 -20 30 0 16 -40 11 -47 -6 -10 -27 23 -80 60 -97 76 -36 159
-14 211 56 18 25 21 42 21 140 0 156 -9 177 -181 421 -27 39 -34 58 -34 96 0
41 4 52 26 69 15 12 40 21 56 21 29 0 70 -31 80 -60 4 -12 9 -13 32 -2 22 10
26 17 20 35 -9 29 -33 56 -66 73 -29 15 -101 18 -133 4z"/>
<path d="M4643 1013 c-10 -4 -13 -75 -13 -308 0 -280 1 -303 18 -307 51 -12
51 -15 54 243 l3 241 33 29 c45 41 102 41 143 0 l29 -29 0 -242 0 -241 38 3
37 3 3 230 c3 262 -3 295 -65 342 -41 32 -134 43 -183 23 -25 -10 -32 -10 -45
4 -17 16 -30 19 -52 9z"/>
<path d="M7910 1008 c-13 -5 -26 -11 -28 -13 -6 -5 76 -453 95 -523 12 -47 19
-55 51 -69 29 -12 43 -13 74 -4 43 13 63 44 74 111 8 46 17 39 28 -21 13 -75
75 -114 136 -89 16 7 36 22 44 35 18 27 121 539 112 560 -3 8 -18 15 -34 15
l-28 0 -48 -242 c-52 -264 -61 -298 -82 -298 -20 0 -30 30 -54 165 -11 66 -25
140 -30 165 -4 25 -14 74 -20 110 -18 96 -19 100 -43 100 -47 0 -48 -8 -26
-134 l21 -117 -27 -132 c-28 -138 -44 -173 -68 -147 -8 8 -35 130 -61 270 -25
140 -50 257 -54 261 -4 4 -18 3 -32 -3z"/>
<path d="M2130 985 c0 -20 7 -26 38 -35 36 -9 58 -26 75 -57 5 -7 -18 -23 -60
-42 -119 -56 -167 -131 -166 -262 1 -76 34 -146 82 -173 42 -24 186 -35 220
-16 22 11 22 12 19 253 -3 235 -4 243 -27 281 -28 44 -87 75 -143 76 -34 0
-38 -3 -38 -25z m138 -347 l-3 -173 -47 -3 c-42 -3 -51 1 -85 31 -34 32 -37
39 -41 100 -4 58 -1 72 23 112 27 48 103 105 137 105 17 0 18 -11 16 -172z"/>
<path d="M2597 1004 c-4 -4 -7 -141 -7 -305 0 -281 1 -298 19 -304 10 -3 26
-3 35 1 14 5 16 32 16 231 0 180 3 230 15 253 19 37 43 50 93 50 41 0 52 11
52 51 0 38 -101 37 -136 -2 l-19 -21 -5 24 c-6 23 -47 38 -63 22z"/>
<path d="M3135 995 c-86 -47 -95 -73 -95 -289 0 -99 5 -187 11 -203 25 -67 90
-105 178 -105 83 0 166 59 148 106 -9 22 -36 19 -82 -9 -85 -52 -165 -23 -180
67 -8 45 -5 49 45 68 54 20 136 87 170 138 62 94 65 173 7 214 -42 30 -157 37
-202 13z m149 -76 c14 -11 26 -28 26 -38 0 -44 -128 -171 -171 -171 -17 0 -19
9 -19 89 0 82 2 90 26 115 34 33 98 36 138 5z"/>
<path d="M4170 985 c0 -20 7 -26 39 -35 53 -14 107 -80 66 -80 -9 0 -35 -10
-58 -21 -115 -59 -149 -111 -155 -239 -3 -75 -1 -90 20 -130 35 -64 73 -83
180 -88 61 -3 93 -1 103 8 13 10 15 50 15 244 0 220 -1 234 -22 276 -28 55
-84 90 -145 90 -39 0 -43 -2 -43 -25z m138 -347 l-3 -173 -40 -3 c-127 -8
-181 150 -92 268 23 31 96 80 120 80 16 0 17 -13 15 -172z"/>
<path d="M6337 996 c-21 -8 -47 -22 -59 -33 -44 -40 -48 -62 -48 -272 l0 -201
36 -39 c43 -49 88 -65 165 -59 l59 4 0 -111 c0 -62 -5 -126 -11 -144 -15 -42
-56 -62 -120 -59 -40 2 -54 -1 -62 -14 -34 -52 111 -76 185 -30 20 13 46 38
57 56 20 32 21 47 21 469 0 424 -1 436 -20 442 -10 3 -27 2 -37 -3 -10 -5 -27
-6 -38 -1 -30 12 -86 10 -128 -5z m113 -72 l40 -16 0 -209 0 -208 -32 -17
c-40 -21 -103 -13 -132 15 -19 20 -21 34 -24 193 -4 192 3 222 52 244 40 17
48 17 96 -2z"/>
<path d="M6817 1003 c-4 -3 -7 -141 -7 -305 0 -267 2 -299 16 -305 9 -3 24 -2
33 4 14 9 17 43 21 247 l5 238 28 24 c20 17 40 24 71 24 45 0 56 10 56 50 0
35 -65 41 -122 11 -36 -20 -36 -20 -41 0 -5 19 -45 27 -60 12z"/>
<path d="M7345 990 c-78 -40 -80 -48 -80 -285 0 -201 1 -211 22 -241 64 -89
223 -96 305 -14 l38 38 0 205 c0 113 -4 217 -9 230 -6 14 -27 38 -47 54 -32
24 -48 28 -113 31 -61 2 -84 -1 -116 -18z m147 -50 c64 -18 68 -32 68 -237 0
-177 -1 -183 -24 -210 -21 -24 -31 -27 -85 -28 -53 0 -64 3 -88 28 l-28 27 -3
169 c-4 191 4 221 61 246 39 17 52 18 99 5z"/>
</g>
</svg>
